<?xml version="1.0" standalone="no"?><!DOCTYPE svg PUBLIC "-//W3C//DTD SVG 1.1//EN" "http://www.w3.org/Graphics/SVG/1.1/DTD/svg11.dtd"><svg t="1716522240899" class="icon" viewBox="0 0 1024 1024" version="1.1" xmlns="http://www.w3.org/2000/svg" p-id="1233" width="48" height="48" xmlns:xlink="http://www.w3.org/1999/xlink"><path d="M532.92 387.596c-38.552 88.668-177.688 67.432-277.912 23.848C130.248 357.192 37.936 172.348 37.936 172.348s207.6-146.872 356.72-82.04c149.104 64.844 176.84 208.584 138.268 297.288z" fill="#B3EBB5" p-id="1234"></path><path d="M110.968 148.128s318.76-89.936 408.328 159.18l-19.712 11.08s-82.52-170.26-388.616-170.26zM63.652 185.372s125.936 187.536 308.972 187.536c0 0 28.696-36.896 73.788-51.24 0 0-6.148-40.996-69.688-40.996-63.54 0-51.24 59.44-98.384 47.144-47.14-12.3-18.708-46.912-18.708-46.912S417.6 167.48 483.248 324.512c0 0-58.26 87.736-59.9 124.432-1.64 36.696-334.572-45.276-359.696-263.572z" fill="#A3D6A5" p-id="1235"></path><path d="M517.888 381.056c-8.664 19.916-23.388 33.736-45.02 42.26-57.816 22.772-147.068 1.028-211.32-26.908-117.932-51.28-208.048-229.592-208.948-231.388l-5.2 20.716c2-1.412 201.884-140.748 340.716-80.384 144.824 62.976 163.068 199.136 129.772 275.704zM401.196 75.28C245.4 7.536 37.252 152.744 28.464 158.956l-11.484 8.132 6.28 12.584c3.88 7.768 96.46 190.824 225.208 246.808 34.104 14.832 151.932 60.628 236.42 27.348 29.72-11.704 50.936-31.792 63.072-59.7 38.724-89.052 18.8-246.852-146.76-318.852z" fill="#6E6E96" p-id="1236"></path><path d="M548.748 383.3c-0.824-3.04-21.036-75.124-95.272-139.344C385.812 185.428 258.372 122.68 35.5 156.128l4.868 32.432c399.076-59.9 473.756 192.588 476.744 203.364l31.636-8.624z" fill="#6E6E96" p-id="1237"></path><path d="M500.272 337.8c-106.932 77.28-64.408 281.048 38.948 384.4 128.664 128.672 369.628 227.936 369.628 227.936s140.728-323.356 17.664-507.82c-123.08-184.456-319.28-181.808-426.24-104.516z" fill="#B3EBB5" p-id="1238"></path><path d="M439.72 232.92c-38.34-21.944-125.32-40.14-180.088 47.984a16.4 16.4 0 0 0 27.856 17.312c51.604-83.04 132.568-38.736 135.992-36.808l-0.048-0.028a16.4 16.4 0 0 0 16.284-28.464z" fill="#6E6E96" p-id="1239"></path><path d="M541.04 332.224s206.432 81.932 267.836 211.128c0 0 147.616 63.964 162.24 91.908 0 0-11.204-162.692-93.144-228.936 0 0 85.7 113.06 0 108.008-87.784-5.172-130.264-161.92-336.928-182.108zM504.272 355.48s-150.092 298.232 345.92 497.048c0 0 31.8-226.492-132.396-376.344 0 0 206.184 161.132 179.54 454.228 0 0-455.02-155.772-455.02-436.572 0 0 18.704-103.772 54.868-139.932" fill="#A3D6A5" p-id="1240"></path><path d="M653.016 645.096s-23.16 38.336 20.908 51.66c44.068 13.32 73.788-106.496 73.788-149.624 0 0 120.928 98.38 102.48 305.396 0 0 29.512-290.32-132.396-385.332 0-0.004-7.804 148.788-64.78 177.9zM921.616 865.668s14.66-168.912-18.136-230.4c0 0 56.692 10.244 56.692 30.744 0 0-20.408-83.276-126.68-93.264 0 0 74.948 161.1 88.124 292.92z" fill="#A3D6A5" p-id="1241"></path><path d="M940.148 433.216c-72.748-109.04-162.66-145.372-225.268-156.66-79.116-14.256-162.932 3.672-224.208 47.952-39.948 28.868-63.54 75.04-68.212 133.512-7.44 93.008 35.808 206.412 105.172 275.776 129.492 129.496 365.012 227.396 374.976 231.5l14.864 6.12 6.416-14.74c5.888-13.536 142.84-333.732 16.26-523.46z m-231.08-124.38c56.344 10.152 137.444 43.132 203.804 142.58 29.476 44.184 42.928 97.228 46.56 151.892-54.984-52.24-127.188-65.88-150.592-69.028-30.2-43.196-62.888-77.012-93.692-103.048-67.2-56.808-133.944-85.528-174.072-99 49.764-25.052 110.188-33.812 167.988-23.4z m251.104 345.48c-2.66 78.856-21.584 156.412-38.556 211.352-10.876-124.012-45.26-219.712-88.124-292.92 36.072 9.392 91.84 31.484 126.68 81.572z m-505.028-193.68c2.576-32.248 13.352-75.892 49.124-105.16 22.88 5.508 94.2 26.124 169.608 83.256 5.2 12.068 61.624 55.284-20.864 206.36-4.34 7.944-1.824 17.868 6.024 22.388a16.392 16.392 0 0 0 22.392-6.024c42.548-73.88 43.4-141.196 36.364-185.276 23.016 22.024 45.588 47.884 66.492 78.112a16.376 16.376 0 0 0 5.736 8.46c55.68 84.02 98.08 200.728 102.084 362.208-62.808-28.116-239.432-112.488-341.296-214.352-63.052-63.056-102.392-165.852-95.664-249.972z" fill="#6E6E96" p-id="1242"></path></svg>